<?xml version="1.0" standalone="no"?>
<!DOCTYPE svg PUBLIC "-//W3C//DTD SVG 20010904//EN"
 "http://www.w3.org/TR/2001/REC-SVG-20010904/DTD/svg10.dtd">
<svg version="1.0" xmlns="http://www.w3.org/2000/svg"
 width="960.000000pt" height="960.000000pt" viewBox="0 0 960.000000 960.000000"
 preserveAspectRatio="xMidYMid meet">
<metadata>
Created by potrace 1.11, written by Peter Selinger 2001-2013
</metadata>
<g transform="translate(0.000000,960.000000) scale(0.100000,-0.100000)"
fill="#000000" stroke="none">
<path d="M4800 9587 c0 -9 -3 -17 -8 -17 -4 0 -17 -21 -30 -47 -12 -27 -49
-97 -82 -158 -65 -121 -91 -171 -170 -320 -29 -55 -68 -129 -87 -165 -20 -36
-58 -108 -86 -160 -27 -52 -70 -133 -95 -180 -25 -47 -59 -112 -76 -145 -17
-33 -33 -62 -36 -65 -3 -3 -22 -39 -43 -80 -21 -41 -53 -102 -71 -135 -18 -33
-70 -132 -116 -220 -46 -88 -88 -163 -94 -167 -6 -4 -7 -8 -3 -8 5 0 -1 -13
-13 -30 -12 -16 -18 -30 -13 -30 4 0 4 -4 -2 -8 -5 -4 -18 -22 -28 -41 -10
-19 -47 -90 -83 -158 -36 -69 -74 -140 -85 -159 -34 -61 -79 -154 -78 -160 0
-4 -5 -10 -13 -15 -7 -5 -13 -12 -13 -16 -1 -8 -13 -32 -70 -138 -37 -67 -90
-169 -190 -360 -38 -71 -71 -132 -75 -135 -6 -4 -21 -36 -24 -50 -1 -3 -22
-43 -48 -90 -76 -141 -125 -231 -160 -300 -18 -36 -36 -66 -40 -68 -5 -2 -8
-12 -8 -22 0 -10 -3 -20 -7 -22 -5 -1 -19 -25 -33 -53 -14 -27 -29 -53 -35
-57 -5 -4 -6 -8 -1 -8 5 0 4 -6 -2 -13 -11 -12 -76 -133 -130 -242 -14 -27
-28 -52 -31 -55 -3 -3 -28 -48 -55 -100 -26 -52 -59 -115 -73 -140 -13 -25
-50 -94 -82 -155 -133 -251 -120 -233 -152 -212 -25 16 -229 131 -314 177 -71
38 -141 78 -208 116 -32 19 -60 34 -62 34 -3 0 -39 20 -81 45 -41 25 -77 45
-79 45 -1 0 -45 24 -96 53 -52 29 -125 71 -164 92 -38 21 -97 54 -130 72 -33
19 -71 39 -85 46 -14 6 -27 14 -30 17 -3 3 -61 37 -130 75 -69 37 -138 76
-155 85 -16 9 -142 79 -280 156 -137 76 -252 141 -255 144 -3 3 -38 22 -78 43
l-72 39 2 -502 3 -501 270 -151 c149 -83 278 -153 288 -156 9 -2 17 -8 17 -12
0 -4 8 -10 17 -14 10 -3 41 -19 68 -35 28 -16 70 -39 94 -52 24 -12 93 -51
153 -86 60 -34 111 -63 112 -63 7 0 290 -161 303 -172 7 -6 13 -8 13 -4 0 3
24 -9 53 -27 28 -18 70 -42 92 -52 22 -11 42 -23 45 -26 3 -3 10 -8 16 -10 6
-2 74 -40 152 -83 l142 -80 -35 -63 c-19 -35 -32 -63 -28 -63 3 0 -1 -8 -9
-17 -8 -10 -22 -31 -30 -48 -26 -55 -130 -249 -164 -307 -18 -32 -31 -58 -27
-58 3 0 0 -6 -6 -14 -11 -13 -31 -49 -104 -191 -23 -44 -46 -83 -52 -87 -5 -4
-6 -8 -2 -8 5 0 0 -12 -10 -27 -10 -16 -29 -50 -43 -78 -14 -27 -28 -52 -33
-53 -4 -2 -5 -8 -1 -13 3 -5 1 -9 -3 -9 -5 0 -15 -16 -22 -35 -7 -19 -16 -35
-21 -35 -4 0 -11 -12 -14 -26 -4 -15 -18 -43 -32 -63 -13 -19 -24 -40 -24 -46
0 -6 -11 -27 -25 -48 -14 -20 -23 -37 -20 -37 3 0 -5 -17 -18 -37 -12 -21 -29
-51 -37 -68 -8 -16 -22 -42 -32 -57 -10 -14 -18 -33 -18 -42 0 -9 -4 -16 -8
-16 -4 0 -15 -15 -23 -32 -8 -18 -44 -87 -79 -153 -159 -298 -183 -344 -213
-405 -18 -36 -35 -67 -38 -70 -3 -3 -36 -63 -74 -135 -175 -333 -204 -386
-216 -402 -6 -7 -9 -13 -5 -13 3 0 -8 -23 -25 -52 -35 -59 -109 -204 -110
-215 0 -5 -6 -11 -14 -16 -7 -4 -16 -21 -20 -37 -4 -16 -10 -32 -14 -35 -5 -2
-34 -55 -66 -117 -32 -62 -63 -116 -69 -120 -6 -4 -7 -8 -2 -8 5 0 3 -8 -5
-17 -8 -10 -22 -34 -31 -54 l-16 -35 595 0 594 1 52 95 c29 53 62 113 74 135
12 22 36 69 54 105 19 36 36 67 39 70 3 3 12 19 20 35 8 17 26 48 39 70 13 22
24 41 23 43 -4 4 30 67 46 85 8 9 11 17 6 17 -5 0 -4 4 1 8 6 4 18 23 27 42 9
19 36 69 58 110 23 41 64 118 92 170 28 52 61 113 73 135 21 38 54 100 167
310 27 50 58 110 71 135 12 25 25 47 30 48 4 2 7 8 7 14 0 5 9 23 21 39 11 16
18 29 14 29 -3 0 6 17 20 37 14 21 25 41 25 44 0 4 29 60 65 124 36 65 65 120
65 121 0 2 40 77 89 166 48 90 114 213 147 273 32 61 71 133 86 160 15 28 34
61 41 75 41 83 129 240 134 240 5 0 96 -50 263 -143 19 -11 96 -53 170 -94
148 -83 195 -109 255 -143 22 -13 58 -33 80 -45 97 -53 343 -190 370 -206 17
-10 50 -29 75 -42 65 -35 163 -89 175 -97 6 -4 46 -27 90 -50 116 -63 118 -64
133 -78 7 -6 19 -12 27 -12 7 0 15 -3 17 -7 2 -5 26 -19 53 -33 28 -14 101
-55 163 -90 l114 -63 101 52 c56 30 109 59 117 66 8 6 33 21 55 32 22 11 56
29 75 40 19 11 67 37 105 58 39 21 73 44 77 49 4 6 8 7 8 2 0 -5 8 -2 18 7 10
10 22 14 25 10 4 -3 7 -1 7 5 0 7 4 12 9 12 9 0 198 106 219 122 6 6 12 8 12
4 0 -4 24 8 53 26 28 19 81 49 117 67 36 19 67 37 70 40 3 3 32 20 65 37 105
55 129 69 143 82 7 6 17 12 22 12 5 0 55 26 112 58 133 76 179 102 313 175 61
34 113 66 117 72 4 5 8 6 8 2 0 -5 13 1 29 12 16 12 33 21 39 21 5 0 15 7 22
15 7 8 21 15 31 15 11 0 19 6 19 13 1 10 20 -15 21 -27 0 -3 27 -53 60 -112
32 -58 59 -108 59 -111 0 -3 9 -18 21 -34 11 -16 17 -29 12 -29 -4 0 -3 -4 2
-8 10 -7 38 -57 98 -177 17 -33 33 -62 36 -65 3 -3 21 -34 40 -70 38 -74 91
-174 127 -240 14 -25 44 -81 67 -125 23 -44 45 -81 49 -83 4 -2 8 -8 8 -13 0
-6 19 -45 42 -87 24 -42 41 -79 39 -81 -1 -2 1 -7 6 -10 5 -3 40 -64 77 -136
38 -71 72 -134 76 -140 7 -10 94 -173 152 -285 18 -36 35 -67 38 -70 7 -7 22
-35 81 -148 28 -53 63 -119 78 -147 15 -27 51 -95 81 -149 29 -55 77 -144 106
-198 30 -54 54 -103 54 -108 0 -6 5 -10 10 -10 6 0 10 -8 10 -19 0 -10 7 -24
15 -31 8 -7 15 -18 15 -24 0 -6 9 -22 20 -36 11 -14 20 -30 20 -36 0 -6 16
-38 35 -70 l36 -59 589 -1 c563 0 590 1 590 18 0 10 -5 18 -10 18 -6 0 -9 3
-8 8 2 9 -13 45 -22 52 -3 3 -20 32 -37 65 -17 33 -46 89 -65 125 -19 36 -68
128 -108 205 -40 77 -77 142 -82 143 -4 2 -6 8 -2 13 3 5 0 9 -7 9 -7 0 -9 3
-6 7 4 3 3 11 -2 17 -5 6 -30 52 -56 101 -26 50 -62 117 -80 150 -17 33 -53
101 -80 150 -89 169 -117 220 -127 233 -6 6 -7 12 -3 12 5 0 1 8 -7 18 -15 17
-25 39 -26 56 0 5 -4 12 -9 15 -9 7 -9 7 -83 146 -61 116 -114 216 -169 318
-21 39 -59 110 -82 157 -24 47 -46 87 -49 90 -3 3 -23 40 -45 82 -61 119 -108
207 -152 289 -22 41 -66 124 -98 184 -95 180 -117 219 -127 233 -6 6 -8 12 -4
12 3 0 -4 17 -17 38 -12 20 -34 60 -47 87 -14 28 -27 52 -30 55 -3 3 -19 32
-36 65 -56 108 -126 240 -141 264 -17 26 -16 27 47 60 19 10 64 34 98 54 35
21 68 37 73 37 5 0 9 3 9 8 0 4 14 13 30 20 17 8 67 35 113 61 45 26 111 63
147 83 85 46 158 86 195 108 17 10 51 29 77 43 26 15 84 47 128 72 43 25 84
45 90 45 5 0 10 4 10 8 0 4 12 13 28 19 15 7 52 26 82 43 71 41 298 168 375
210 33 18 106 59 163 92 57 32 107 58 110 58 4 1 17 9 30 20 l22 18 -2 496 -3
496 -67 -39 c-38 -22 -68 -37 -68 -35 0 3 -7 -2 -16 -10 -8 -9 -21 -16 -29
-16 -7 0 -15 -3 -17 -7 -3 -8 -44 -31 -133 -76 -22 -12 -42 -23 -45 -26 -3 -3
-34 -21 -70 -40 -36 -19 -73 -41 -82 -49 -10 -8 -18 -12 -18 -8 0 4 -12 -1
-27 -12 -26 -17 -445 -253 -623 -349 -19 -10 -117 -65 -217 -121 -100 -56
-187 -102 -192 -102 -5 0 -11 -3 -13 -8 -3 -7 -204 -122 -214 -122 -3 0 -12
-7 -21 -15 -8 -8 -19 -13 -24 -10 -5 4 -9 3 -9 -2 0 -4 -10 -13 -23 -18 -32
-16 -111 -59 -117 -65 -3 -3 -34 -21 -70 -39 -36 -19 -68 -39 -72 -45 -4 -6
-8 -7 -8 -3 0 5 -14 -1 -31 -14 -17 -12 -34 -18 -39 -13 -10 11 -39 63 -102
184 -27 52 -62 118 -77 145 -15 28 -57 106 -93 175 -36 69 -90 170 -120 225
-29 55 -64 123 -78 150 -14 28 -28 52 -31 55 -3 3 -17 28 -30 55 -46 91 -159
306 -173 328 -8 12 -38 69 -68 127 -30 58 -67 126 -82 153 -14 26 -23 47 -19
47 4 0 3 4 -3 8 -10 6 -33 50 -172 312 -82 156 -125 235 -135 248 -5 6 -6 12
-1 12 5 0 4 4 -1 8 -6 4 -24 34 -41 67 -18 33 -55 103 -83 155 -28 52 -68 129
-88 170 -21 41 -40 77 -43 80 -6 6 -44 78 -109 205 -25 50 -48 92 -51 95 -3 3
-13 21 -22 40 -10 19 -49 94 -87 165 -39 72 -88 164 -108 205 -21 41 -40 77
-43 80 -3 3 -25 43 -49 90 -24 47 -56 108 -71 135 -42 76 -109 203 -143 270
-17 33 -33 62 -36 65 -3 3 -37 66 -76 140 -38 74 -82 158 -97 185 -15 28 -44
84 -65 125 -41 79 -113 212 -119 219 -2 2 -4 -3 -4 -12z m27 -2352 c46 -91
127 -241 132 -245 3 -3 24 -41 47 -85 54 -105 256 -481 305 -568 22 -38 39
-75 39 -83 0 -8 7 -17 15 -20 8 -4 15 -12 15 -18 0 -11 63 -133 135 -261 13
-22 24 -44 25 -50 1 -5 10 -21 19 -35 10 -14 27 -43 38 -65 46 -90 95 -181
105 -192 6 -7 7 -13 2 -13 -5 0 -4 -4 2 -8 6 -4 26 -36 44 -72 18 -36 43 -81
54 -100 11 -19 21 -41 22 -48 2 -8 9 -21 17 -30 8 -10 26 -39 40 -67 31 -62
70 -135 82 -155 5 -8 10 -21 11 -27 1 -7 9 -20 18 -29 9 -8 16 -22 16 -30 0
-8 5 -14 11 -14 5 0 8 -4 4 -9 -3 -5 2 -16 10 -24 8 -9 15 -23 15 -31 0 -9 3
-16 8 -16 4 0 12 -10 18 -23 12 -26 103 -196 146 -277 17 -30 34 -59 39 -64 5
-6 9 -18 9 -28 0 -10 3 -18 8 -18 4 0 13 -15 21 -32 8 -18 17 -35 20 -38 9 -8
63 -112 59 -115 -9 -9 -202 -115 -209 -115 -5 0 -9 -4 -9 -10 0 -5 -5 -10 -11
-10 -6 0 -54 -25 -106 -55 -53 -30 -99 -55 -102 -55 -4 0 -23 -11 -43 -25 -20
-14 -44 -25 -52 -25 -9 0 -16 -4 -16 -9 0 -4 -22 -19 -50 -32 -27 -13 -50 -27
-50 -31 0 -5 -6 -8 -14 -8 -8 0 -21 -6 -28 -13 -7 -6 -19 -13 -25 -14 -7 -2
-42 -21 -78 -43 -36 -22 -67 -40 -69 -40 -3 0 -52 -27 -110 -60 -58 -33 -110
-60 -116 -60 -5 0 -10 -4 -10 -10 0 -5 -5 -10 -10 -10 -8 0 -189 -97 -240
-130 -8 -5 -46 -26 -85 -46 -38 -20 -77 -42 -85 -49 -20 -18 -71 -30 -79 -19
-3 5 -24 18 -46 30 -37 19 -114 61 -195 107 -38 22 -96 54 -164 91 -24 14
-100 56 -169 95 -69 39 -128 71 -132 71 -4 0 -19 8 -33 18 -15 11 -52 32 -82
49 -30 17 -77 43 -105 58 -27 15 -86 48 -130 72 -44 25 -87 49 -95 54 -8 5
-26 15 -40 22 -27 13 -300 166 -343 193 -20 12 -25 -2 57 149 13 25 21 45 18
45 -4 0 -2 4 4 8 7 4 32 45 56 92 53 100 135 254 155 290 43 77 136 250 151
280 9 19 19 37 22 40 3 3 18 30 33 60 50 96 128 242 178 333 27 48 50 93 52
100 1 6 5 14 8 17 3 3 25 41 49 85 24 44 55 103 70 130 91 168 114 212 138
258 15 29 30 54 34 55 5 2 8 12 8 22 0 10 3 20 8 22 4 2 19 26 33 53 33 63 86
161 158 295 32 58 61 112 64 120 4 8 22 42 40 75 19 33 60 110 92 170 32 61
65 121 74 135 8 14 23 42 33 63 9 20 19 37 22 37 3 0 14 -16 23 -35z"/>
<path d="M3469 1317 c-5 -7 -57 -75 -114 -152 -57 -77 -108 -144 -112 -150
-37 -43 -133 -178 -133 -185 0 -6 -4 -10 -9 -10 -4 0 -21 -19 -37 -42 -16 -24
-33 -48 -39 -54 -28 -32 -45 -55 -45 -60 0 -3 -6 -11 -12 -18 -7 -7 -22 -25
-33 -40 -30 -42 -193 -259 -202 -271 -5 -5 -42 -55 -83 -110 -41 -55 -78 -104
-82 -110 -29 -36 -78 -105 -78 -109 0 -3 1042 -6 2315 -6 1273 0 2315 3 2315
6 0 5 -29 45 -67 94 -6 8 -44 58 -83 110 -92 123 -99 133 -157 210 -26 36 -51
70 -56 75 -50 62 -297 398 -297 404 0 5 -4 11 -9 13 -5 2 -78 95 -162 208
l-154 206 -30 -11 c-16 -5 -32 -12 -35 -16 -8 -9 -195 -99 -207 -99 -6 0 -13
-3 -15 -8 -4 -10 -450 -232 -466 -232 -6 0 -12 -4 -12 -8 0 -8 -157 -84 -163
-79 -1 1 -9 -4 -17 -11 -8 -7 -98 -55 -200 -106 l-186 -92 -182 92 c-100 51
-182 89 -182 86 0 -4 -4 -2 -8 3 -10 14 -312 166 -312 157 0 -4 -4 -2 -8 3 -4
6 -148 81 -320 167 -232 116 -315 154 -323 145z"/>
</g>
</svg>
