<svg xmlns="http://www.w3.org/2000/svg" width="194.104" height="18.591" viewBox="0 0 194.104 18.591"><path d="M-88.049,0h-2.441V-12.207h2.441Zm6.1-14.648H-96.594V-17.09h14.648Zm1.9-2.441H-77.6v7.324h10.986V-17.09h2.441V0h-2.441V-7.324H-80.042ZM-77.6,0h-2.441V-4.883H-77.6Zm30.518-17.09v2.441H-59.29V-2.441h12.207V0H-61.731V-17.09Zm0,9.766h-9.766V-9.766h9.766Zm11.414,4.883h8.215V0H-39.575l9.07-18.591L-21.436,0h-2.722l-6.348-13.025ZM-15.515-17.09H-4.529v2.441H-15.515a2.353,2.353,0,0,0-1.727.714,2.353,2.353,0,0,0-.714,1.727,2.353,2.353,0,0,0,.714,1.727,2.353,2.353,0,0,0,1.727.714h6.1A4.706,4.706,0,0,1-5.957-8.337,4.706,4.706,0,0,1-4.529-4.883,4.706,4.706,0,0,1-5.957-1.428,4.706,4.706,0,0,1-9.412,0H-20.4V-2.441H-9.412a2.353,2.353,0,0,0,1.727-.714A2.353,2.353,0,0,0-6.97-4.883,2.353,2.353,0,0,0-7.684-6.61a2.353,2.353,0,0,0-1.727-.714h-6.1A4.706,4.706,0,0,1-18.97-8.752,4.706,4.706,0,0,1-20.4-12.207a4.706,4.706,0,0,1,1.428-3.455A4.706,4.706,0,0,1-15.515-17.09Zm17.31,0H12.781v2.441H1.794a2.353,2.353,0,0,0-1.727.714,2.353,2.353,0,0,0-.714,1.727A2.353,2.353,0,0,0,.067-10.48a2.353,2.353,0,0,0,1.727.714H7.9a4.706,4.706,0,0,1,3.455,1.428,4.706,4.706,0,0,1,1.428,3.455,4.706,4.706,0,0,1-1.428,3.455A4.706,4.706,0,0,1,7.9,0H-3.088V-2.441H7.9a2.353,2.353,0,0,0,1.727-.714,2.353,2.353,0,0,0,.714-1.727A2.353,2.353,0,0,0,9.625-6.61,2.353,2.353,0,0,0,7.9-7.324h-6.1A4.706,4.706,0,0,1-1.66-8.752a4.706,4.706,0,0,1-1.428-3.455A4.706,4.706,0,0,1-1.66-15.662,4.706,4.706,0,0,1,1.794-17.09Zm28.076,0v2.441H17.664V-2.441H29.871V0H15.222V-17.09Zm0,9.766H20.1V-9.766h9.766Zm4.883-6.1V0H32.312V-17.09h2.441l6.1,6.1,6.1-6.1H49.4V0H46.96V-13.428l-6.1,6.1Zm19.531-1.221v9.766H51.843V-17.09H62.83a4.706,4.706,0,0,1,3.455,1.428,4.706,4.706,0,0,1,1.428,3.455,4.706,4.706,0,0,1-1.428,3.455q-.11.11-.22.208.11.1.22.208a4.706,4.706,0,0,1,1.428,3.455,4.706,4.706,0,0,1-1.428,3.455A4.706,4.706,0,0,1,62.83,0H51.843V-2.441H62.83a2.353,2.353,0,0,0,1.727-.714,2.353,2.353,0,0,0,.714-1.727,2.353,2.353,0,0,0-.714-1.727,2.353,2.353,0,0,0-1.727-.714h-6.1V-9.766h6.1a2.353,2.353,0,0,0,1.727-.714,2.353,2.353,0,0,0,.714-1.727,2.353,2.353,0,0,0-.714-1.727,2.353,2.353,0,0,0-1.727-.714ZM70.154-17.09H72.6V-2.441H84.8V0H70.154ZM87.439-8.105,79.81-17.09h3.2l5.652,6.665,5.652-6.665h3.2L89.88-8.105V0H87.439Z" transform="translate(96.594 18.591)" fill="#bcc3cc"/></svg>