<svg id="DU_money" xmlns="http://www.w3.org/2000/svg" width="19.731" height="19.731" viewBox="0 0 19.731 19.731">
  <path id="Path_91" data-name="Path 91" d="M360.5,246.106a2.447,2.447,0,0,0-.46-.856,2.066,2.066,0,0,0-.755-.558,2.568,2.568,0,0,0-1.037-.2,2.658,2.658,0,0,0-1.177.244,3.722,3.722,0,0,0-.92.634v-2.342h2.2v-1.37h-2.2V240h-1.72v1.658H353v1.37h1.439v8.72h1.72v-5.164a3.016,3.016,0,0,1,.738-.55,1.8,1.8,0,0,1,.835-.2,1.122,1.122,0,0,1,.912.358,1.542,1.542,0,0,1,.3,1.014v4.545h1.72V247.2A3.632,3.632,0,0,0,360.5,246.106Z" transform="translate(-346.972 -236.018)" fill="#45a29e"/>
  <path id="Path_92" data-name="Path 92" d="M29.866,39.731a9.828,9.828,0,1,1,3.841-.775A9.82,9.82,0,0,1,29.866,39.731Zm0-18.1A8.236,8.236,0,1,0,38.1,29.866,8.245,8.245,0,0,0,29.866,21.629Z" transform="translate(-20 -20)" fill="#45a29e"/>
</svg>
